<svg xmlns="http://www.w3.org/2000/svg" viewBox="0 0 2086.422 292.96" preserveAspectRatio="none">
  <path id="Path_2000" data-name="Path 2000" d="M1045.028,529.255a91.528,91.528,0,0,0,153.313-44.047,75.3,75.3,0,0,0,113.793-11.22,114.078,114.078,0,0,0,190.683-56.941,89.982,89.982,0,0,0,120.472-23.214,75.289,75.289,0,0,0,125.071-36.006,79.67,79.67,0,0,0,83,8,40.642,40.642,0,0,0,53.477,13.366,75.337,75.337,0,0,0,66.372,39.666,74.347,74.347,0,0,0,25.037-4.277,104.417,104.417,0,0,0,179.641-3.469,75.579,75.579,0,0,0,52.353,5.313,75.3,75.3,0,0,0,68.315,24.33,104.4,104.4,0,0,0,195.573,40.036c21.133,23.4,53.246,38.333,89.218,38.333,46.548,0,86.623-25.019,104.809-61.012l35.237,8.64a104.36,104.36,0,0,0,171.319,42l56.926,13.956a138.442,138.442,0,0,0,103.982,46.9V276.639H947.2V569.6A138.36,138.36,0,0,0,1045.028,529.255Z" transform="translate(-947.201 -276.639)" fill="#fff"/>
</svg>
