<svg xmlns="http://www.w3.org/2000/svg" width="1988.058" height="330.975" viewBox="0 0 1988.058 330.975" preserveAspectRatio="none">
  <path id="Path_674" data-name="Path 674" d="M50.634,441.123a77.317,77.317,0,0,0,92.6,116.292,68.989,68.989,0,0,0,46.8,22.069,103.769,103.769,0,0,0,194.237,66.855A84.646,84.646,0,0,0,514.506,612.5a68.808,68.808,0,0,0,30.285-11.471,71.763,71.763,0,0,0,84.4,62.106,75.848,75.848,0,0,0,147.447-19.9,72.142,72.142,0,0,0,114.168-16.186,69.3,69.3,0,0,0,63.838-7.446,101.968,101.968,0,0,0,197.681,4.706,68.4,68.4,0,0,0,16.551,5.834A139.009,139.009,0,0,0,1391.45,563.28a78.8,78.8,0,0,0,7.235-13.865c-.081,1.27-.193,2.532-.193,3.821A59.859,59.859,0,0,0,1500.258,596a85.848,85.848,0,0,0,145.419,77.233,73.088,73.088,0,1,0,141.482,25.744l0-.123A82.638,82.638,0,0,0,1918,631.639c0-2.105-.162-4.168-.316-6.227a86.156,86.156,0,0,0,73.493-110.959,57.529,57.529,0,0,0,29.054-73.331Z" transform="translate(-36.234 -441.123)" fill="#fffae1"/>
</svg>
