<svg xmlns="http://www.w3.org/2000/svg" width="100%" height="330.975" viewBox="0 0 2130.897 330.975"><path d="M51.669,441.123a73.449,73.449,0,0,0-15.435,44.839c0,42.73,37.122,77.364,82.914,77.364a87.791,87.791,0,0,0,31.777-5.911,76.2,76.2,0,0,0,50.164,22.069,97.594,97.594,0,0,0-1.976,19.445c0,57.311,49.8,103.77,111.234,103.77,43.115,0,80.472-22.9,98.934-56.36a94.528,94.528,0,0,0,55.918,18.01c37.641,0,69.926-21.388,83.669-51.847A77.011,77.011,0,0,0,581.33,601.03c4.686,35.673,37.2,63.318,76.7,63.318a83,83,0,0,0,13.764-1.212c11,29.793,41.238,51.239,76.9,51.239,43.218,0,78.464-31.448,81.136-71.141A79.968,79.968,0,0,0,884.5,664.349c29.157,0,54.524-15.07,67.707-37.3a79.026,79.026,0,0,0,26.468,4.591,78.165,78.165,0,0,0,41.956-12.037c11.025,45.436,54.532,79.38,106.577,79.38,50.222,0,92.5-31.613,105.307-74.674a76.867,76.867,0,0,0,17.74,5.834,154.926,154.926,0,0,0,95.729,32.506c67.525,0,124.528-41.918,142.833-99.368a77.071,77.071,0,0,0,7.755-13.865c-.087,1.27-.206,2.532-.206,3.821,0,33.075,28.732,59.886,64.184,59.886A66.4,66.4,0,0,0,1605.445,596a80.616,80.616,0,0,0-1.835,17.117c0,47.417,41.2,85.861,92.026,85.861a95.072,95.072,0,0,0,65.677-25.744,68.5,68.5,0,0,0-5.09,25.744c0,40.375,35.084,73.116,78.369,73.116s78.369-32.74,78.369-73.116l0-.123a92.486,92.486,0,0,0,51.563,15.516c48.976,0,88.681-37.047,88.681-82.736,0-2.105-.173-4.168-.338-6.227,46.526-4.418,82.832-41.083,82.832-85.649a80.721,80.721,0,0,0-4.059-25.31c20.957-9.24,35.5-29.085,35.5-52.151a54.113,54.113,0,0,0-4.356-21.18Z" transform="translate(-36.234 -441.123)" fill="#fffae1"/></svg>